<svg width="889" height="744" viewBox="0 0 889 744" fill="none" xmlns="http://www.w3.org/2000/svg">
<rect width="889" height="744" fill="#1E1E1E"/>
<g clip-path="url(#clip0_0_1)">
<path d="M249.509 168.333C285.748 168.333 315.126 138.956 315.126 102.717C315.126 66.4773 285.748 37.0996 249.509 37.0996C213.27 37.0996 183.892 66.4773 183.892 102.717C183.892 138.956 213.27 168.333 249.509 168.333Z" fill="#FF6584"/>
<path d="M632.671 121.848H553.963V50.296L632.671 121.848Z" fill="#3F3D56"/>
<path d="M641.867 119.506H245.916V666.535H641.867V119.506Z" fill="#E6E6E6"/>
<path d="M332.002 157.86H285.419V256.016H332.002V157.86Z" fill="white"/>
<path d="M404.055 157.86H357.472V256.016H404.055V157.86Z" fill="white"/>
<path d="M325.863 296.983H279.28V395.139H325.863V296.983Z" fill="white"/>
<path d="M404.055 296.983H357.472V395.139H404.055V296.983Z" fill="white"/>
<path d="M325.863 425.71H279.28V523.865H325.863V425.71Z" fill="white"/>
<path d="M402.3 423.955H355.718V522.111H402.3V423.955Z" fill="white"/>
<path d="M470.006 568.599H423.423V666.755H470.006V568.599Z" fill="#CCCCCC"/>
<path d="M540.384 423.955H493.802V522.111H540.384V423.955Z" fill="white"/>
<path d="M618.576 423.955H571.994V522.111H618.576V423.955Z" fill="white"/>
<path d="M542.138 295.944H495.556V394.1H542.138V295.944Z" fill="white"/>
<path d="M620.33 295.944H573.748V394.1H620.33V295.944Z" fill="white"/>
<path d="M542.138 157.86H495.556V256.016H542.138V157.86Z" fill="white"/>
<path d="M620.33 157.86H573.748V256.016H620.33V157.86Z" fill="white"/>
<path d="M641.867 245.944H245.916V260.917H641.867V245.944Z" fill="#3F3D56"/>
<path d="M641.867 362.4H245.916V370.718H641.867V362.4Z" fill="#3F3D56"/>
<path d="M641.867 335.781H245.916V344.1H641.867V335.781Z" fill="#3F3D56"/>
<path d="M285.012 530.43V463.883H276.694V530.43H285.012Z" fill="#3F3D56"/>
<path d="M331.595 530.43V463.883H323.277V530.43H331.595Z" fill="#3F3D56"/>
<path d="M378.177 530.43V463.883H369.859V530.43H378.177Z" fill="#3F3D56"/>
<path d="M424.76 530.43V463.883H416.442V530.43H424.76Z" fill="#3F3D56"/>
<path d="M471.342 530.43V463.883H463.024V530.43H471.342Z" fill="#3F3D56"/>
<path d="M517.925 530.43V463.883H509.607V530.43H517.925Z" fill="#3F3D56"/>
<path d="M564.507 530.43V463.883H556.189V530.43H564.507Z" fill="#3F3D56"/>
<path d="M611.09 530.43V463.883H602.772V530.43H611.09Z" fill="#3F3D56"/>
<path d="M285.844 403.991V337.445H277.526V403.991H285.844Z" fill="#3F3D56"/>
<path d="M332.427 403.991V337.445H324.108V403.991H332.427Z" fill="#3F3D56"/>
<path d="M379.009 403.991V337.445H370.691V403.991H379.009Z" fill="#3F3D56"/>
<path d="M425.592 403.991V337.445H417.273V403.991H425.592Z" fill="#3F3D56"/>
<path d="M472.174 403.991V337.445H463.856V403.991H472.174Z" fill="#3F3D56"/>
<path d="M518.757 403.991V337.445H510.438V403.991H518.757Z" fill="#3F3D56"/>
<path d="M565.339 403.991V337.445H557.021V403.991H565.339Z" fill="#3F3D56"/>
<path d="M611.922 403.991V337.445H603.603V403.991H611.922Z" fill="#3F3D56"/>
<path d="M285.844 255.926V189.379H277.526V255.926H285.844Z" fill="#3F3D56"/>
<path d="M332.427 255.926V189.379H324.108V255.926H332.427Z" fill="#3F3D56"/>
<path d="M379.009 255.926V189.379H370.691V255.926H379.009Z" fill="#3F3D56"/>
<path d="M425.592 255.926V189.379H417.273V255.926H425.592Z" fill="#3F3D56"/>
<path d="M472.174 255.926V189.379H463.856V255.926H472.174Z" fill="#3F3D56"/>
<path d="M518.757 255.926V189.379H510.438V255.926H518.757Z" fill="#3F3D56"/>
<path d="M565.339 255.926V189.379H557.021V255.926H565.339Z" fill="#3F3D56"/>
<path d="M611.922 255.926V189.379H603.603V255.926H611.922Z" fill="#3F3D56"/>
<path d="M641.867 212.671H245.916V220.989H641.867V212.671Z" fill="#3F3D56"/>
<path d="M641.867 186.052H245.916V194.37H641.867V186.052Z" fill="#3F3D56"/>
<path d="M641.867 390.682H245.916V405.655H641.867V390.682Z" fill="#3F3D56"/>
<path d="M660.088 113.351H227.696V135.663H660.088V113.351Z" fill="#3F3D56"/>
<path d="M332.09 589.824V568.599H306.62V589.824H329.967H332.09Z" fill="white"/>
<path d="M329.967 606.803H306.62V628.028H332.09V606.803H329.967Z" fill="white"/>
<path d="M374.539 568.599H349.07V589.824H374.539V568.599Z" fill="white"/>
<path d="M374.539 606.803H349.07V628.028H374.539V606.803Z" fill="white"/>
<path d="M539.823 589.824V568.599H514.353V589.824H537.7H539.823Z" fill="white"/>
<path d="M537.7 606.803H514.353V628.028H539.823V606.803H537.7Z" fill="white"/>
<path d="M582.272 568.599H556.802V589.824H582.272V568.599Z" fill="white"/>
<path d="M582.272 606.803H556.802V628.028H582.272V606.803Z" fill="white"/>
<path d="M641.867 517.12H245.916V532.093H641.867V517.12Z" fill="#3F3D56"/>
<path d="M641.867 490.502H245.916V498.82H641.867V490.502Z" fill="#3F3D56"/>
<path d="M641.867 463.883H245.916V472.202H641.867V463.883Z" fill="#3F3D56"/>
<path d="M365.788 659.405C365.788 658.942 365.782 658.481 365.769 658.023C365.413 645.759 353.247 642.433 346.725 648.238C344.667 646.451 342.033 645.467 339.307 645.467C336.581 645.467 333.947 646.451 331.889 648.238C325.339 642.524 313.416 645.614 313.022 657.738C313.008 658.196 313 658.657 312.999 659.12C313.018 661.67 313.174 664.217 313.467 666.75H365.326C365.608 664.311 365.762 661.86 365.788 659.405Z" fill="#6C63FF"/>
<path d="M571.897 659.405C571.898 658.942 571.892 658.481 571.878 658.023C571.523 645.759 559.357 642.433 552.835 648.238C550.777 646.451 548.143 645.467 545.417 645.467C542.691 645.467 540.057 646.451 537.999 648.238C531.449 642.524 519.526 645.614 519.132 657.738C519.117 658.196 519.109 658.657 519.108 659.12C519.128 661.67 519.284 664.217 519.577 666.75H571.436C571.717 664.311 571.872 661.86 571.897 659.405Z" fill="#6C63FF"/>
<path d="M856.314 667.579H848.294L850.967 510.911H853.641L856.314 667.579Z" fill="#E6E6E6"/>
<path d="M862.997 412.277L875.944 392.269C872.104 381.663 867.67 371.282 862.661 361.176L854.29 367.938L860.918 357.694C854.601 345.258 849.631 337.424 849.631 337.424C849.631 337.424 823.666 378.34 814.991 421.66L831.605 447.335L813.213 432.48C812.558 437.527 812.221 442.609 812.204 447.698C812.204 499.004 828.961 540.596 849.631 540.596C870.301 540.596 887.057 499.004 887.057 447.698C887.057 431.793 883.459 415.152 878.495 399.759L862.997 412.277Z" fill="#E6E6E6"/>
<path d="M828.074 448.447H656.97V574.433H657.074V599.516L682.157 574.433H828.074V448.447Z" fill="#6C63FF"/>
<path d="M611.695 717.512H459.892V723.512H611.695V717.512Z" fill="#E6E6E6"/>
<path d="M888.516 717.512H735.892V723.512H888.516V717.512Z" fill="#E6E6E6"/>
<path d="M329 720H177V726H329V720Z" fill="#E6E6E6"/>
<path d="M887.892 666.619H0V668.292H887.892V666.619Z" fill="#3F3D56"/>
<path d="M410.397 1.04816L410.281 1.11116C409.032 1.79436 407.632 2.1548 406.208 2.1598C404.785 2.16479 403.382 1.81417 402.128 1.13976C402.056 1.10078 401.984 1.06229 401.912 1.02429C400.659 0.354987 399.258 0.00721692 397.837 0.0121245C396.415 0.0170321 395.018 0.374466 393.768 1.05241L393.66 1.11116C392.411 1.79436 391.011 2.1548 389.587 2.1598C388.164 2.16479 386.761 1.81417 385.507 1.13976C385.432 1.09929 385.357 1.05935 385.283 1.01993C384.044 0.353698 382.66 0.00379546 381.253 0.00130604C379.846 -0.00118338 378.46 0.34382 377.219 1.00566C373.426 3.048 368.299 6.53991 368.322 10.4835C368.323 10.6394 368.332 10.7952 368.348 10.9503C368.789 15.0456 382.147 16.0892 389.485 14.1591C394.955 15.4072 400.636 15.4072 406.106 14.1591C413.413 16.1201 427.042 14.9966 427.441 10.8542C427.456 10.699 427.463 10.5432 427.462 10.3872C427.439 6.44154 422.267 2.98623 418.451 0.972642C417.206 0.321314 415.82 -0.0125853 414.415 0.000588875C413.01 0.0137631 411.63 0.373599 410.397 1.04816Z" fill="#E6E6E6"/>
<path d="M778.397 136.264L778.281 136.327C777.032 137.01 775.632 137.371 774.208 137.376C772.785 137.381 771.382 137.03 770.128 136.356C770.056 136.317 769.984 136.278 769.912 136.24C768.659 135.571 767.258 135.223 765.837 135.228C764.416 135.233 763.018 135.59 761.768 136.268L761.66 136.327C760.411 137.01 759.011 137.371 757.587 137.376C756.164 137.381 754.761 137.03 753.507 136.356C753.432 136.315 753.357 136.275 753.283 136.236C752.044 135.57 750.66 135.22 749.253 135.217C747.846 135.215 746.46 135.56 745.219 136.222C741.426 138.264 736.299 141.756 736.322 145.699C736.323 145.855 736.332 146.011 736.348 146.166C736.789 150.262 750.147 151.305 757.485 149.375C762.955 150.623 768.636 150.623 774.106 149.375C781.413 151.336 795.042 150.213 795.441 146.07C795.456 145.915 795.463 145.759 795.462 145.603C795.439 141.657 790.267 138.202 786.451 136.189C785.206 135.537 783.82 135.203 782.415 135.217C781.01 135.23 779.63 135.59 778.397 136.264Z" fill="#E6E6E6"/>
<path d="M133.967 143.812L133.851 143.875C132.602 144.558 131.202 144.919 129.778 144.924C128.355 144.929 126.952 144.578 125.698 143.904C125.626 143.865 125.554 143.826 125.482 143.788C124.229 143.119 122.828 142.771 121.407 142.776C119.986 142.781 118.588 143.138 117.338 143.816L117.23 143.875C115.981 144.558 114.581 144.919 113.157 144.924C111.734 144.929 110.331 144.578 109.077 143.904C109.002 143.863 108.927 143.823 108.853 143.784C107.614 143.118 106.23 142.768 104.823 142.765C103.416 142.763 102.03 143.108 100.789 143.77C96.9963 145.812 91.8694 149.304 91.892 153.247C91.8929 153.403 91.9017 153.559 91.9185 153.714C92.3595 157.81 105.717 158.853 113.055 156.923C118.525 158.171 124.206 158.171 129.676 156.923C136.983 158.884 150.612 157.761 151.011 153.618C151.026 153.463 151.033 153.307 151.032 153.151C151.009 149.206 145.837 145.75 142.021 143.737C140.776 143.085 139.39 142.751 137.985 142.765C136.58 142.778 135.2 143.138 133.967 143.812Z" fill="#E6E6E6"/>
<path d="M736.528 538.291L714.678 510.199L727.384 500.316L737.729 513.617L772.679 476.725L784.366 487.797L736.528 538.291Z" fill="white"/>
<path d="M6.34003 480.325H177.444V606.311H177.34V631.394L152.257 606.311H6.34003V480.325Z" fill="#6C63FF"/>
<path d="M87.042 573.169L65.192 545.077L77.899 535.193L88.244 548.495L123.193 511.603L134.88 522.674L87.042 573.169Z" fill="white"/>
<path d="M385.66 700.087H385.927C386.593 700.087 387.253 700.259 387.868 700.594C388.484 700.929 389.043 701.421 389.514 702.04C389.985 702.659 390.359 703.394 390.614 704.203C390.869 705.012 391 705.879 391 706.755C391 708.523 390.465 710.219 389.514 711.47C388.563 712.72 387.272 713.423 385.927 713.423H385.66L385.66 700.087Z" fill="white"/>
<path d="M227.969 718.238H224.387H73.0001C71.8955 718.238 71.0001 717.342 71.0001 716.238L71 638.162C71 637.058 71.8955 636.162 73 636.162L83.5743 636.162L166.403 636H375.033C378.593 636 381.487 637.938 382.074 641.449C384.908 658.425 388.603 708.457 389.187 717.22C389.225 717.794 388.767 718.238 388.192 718.238H231.174H227.969Z" fill="#6C63FF"/>
<path d="M322.971 730.777C333.181 730.777 341.458 722.166 341.458 711.542C341.458 700.919 333.181 692.307 322.971 692.307C312.761 692.307 304.484 700.919 304.484 711.542C304.484 722.166 312.761 730.777 322.971 730.777Z" fill="#3F3D56"/>
<path d="M322.759 721.445C328.133 721.445 332.489 716.913 332.489 711.322C332.489 705.731 328.133 701.198 322.759 701.198C317.385 701.198 313.029 705.731 313.029 711.322C313.029 716.913 317.385 721.445 322.759 721.445Z" fill="#CCCCCC"/>
<path d="M133.918 733C144.128 733 152.405 724.388 152.405 713.765C152.405 703.142 144.128 694.53 133.918 694.53C123.708 694.53 115.431 703.142 115.431 713.765C115.431 724.388 123.708 733 133.918 733Z" fill="#3F3D56"/>
<path d="M133.918 723.889C139.292 723.889 143.648 719.356 143.648 713.765C143.648 708.174 139.292 703.641 133.918 703.641C128.544 703.641 124.188 708.174 124.188 713.765C124.188 719.356 128.544 723.889 133.918 723.889Z" fill="#CCCCCC"/>
<path d="M369.638 686.751H73.7755V687.862H369.638V686.751Z" fill="#3F3D56"/>
<path d="M386.728 683.354L376.275 683.402H374.999L372.845 683.417V681.829L372.844 662.706L372.842 641.235H374.276L375.551 641.217L377.811 641.202H379.087L381.696 641.187L386.728 683.354Z" fill="white"/>
<path d="M385.66 714.501L355.107 714.526H351.377L345.081 714.534V713.698L345.076 703.634L345.072 692.333H349.261L352.991 692.323L359.597 692.315H363.326L370.953 692.307L385.66 714.501Z" fill="white"/>
<path d="M93.0012 683.387L73.7859 683.417L73.7807 672.47V653.339L73.7755 641.217H76.589L81.0272 641.202L92.996 641.187L93.0012 683.387Z" fill="white"/>
<path d="M181.653 683.387L144.29 683.417L144.28 672.47V653.339L144.27 641.217H149.741L158.37 641.202L181.643 641.187L181.653 683.387Z" fill="white"/>
<path d="M137.861 683.387L100.498 683.417L100.488 672.47V653.339L100.478 641.217H105.949L114.578 641.202L137.851 641.187L137.861 683.387Z" fill="white"/>
<path d="M225.445 683.387L188.082 683.417L188.072 672.47V653.339L188.062 641.217H193.532L202.162 641.202L225.435 641.187L225.445 683.387Z" fill="white"/>
<path d="M358.957 683.387L319.459 683.417L319.448 672.47V653.339L319.438 641.217H325.221L334.344 641.202L358.946 641.187L358.957 683.387Z" fill="white"/>
<path d="M313.029 683.387L275.666 683.417L275.656 672.47V653.339L275.646 641.217H281.116L289.746 641.202L313.019 641.187L313.029 683.387Z" fill="white"/>
<path d="M269.237 683.387L231.874 683.417L231.864 672.47V653.339L231.854 641.217H237.324L245.954 641.202L269.227 641.187L269.237 683.387Z" fill="white"/>
<path d="M372.842 683.417V641.187H371.774V683.417H372.842Z" fill="#3F3D56"/>
<path d="M163.496 683.417V641.187H162.427V683.417H163.496Z" fill="#3F3D56"/>
<path d="M338.663 683.417V641.187H337.595V683.417H338.663Z" fill="#3F3D56"/>
<path d="M207.287 683.417V641.187H206.219V683.417H207.287Z" fill="#3F3D56"/>
<path d="M298.076 683.417V641.187H297.008V683.417H298.076Z" fill="#3F3D56"/>
<path d="M128.248 683.417V641.187H127.18V683.417H128.248Z" fill="#3F3D56"/>
<path d="M258.556 683.417V641.187H257.488V683.417H258.556Z" fill="#3F3D56"/>
<path d="M108.849 706.755H105.818V712.746H108.849V706.755Z" fill="#3F3D56"/>
<path d="M378.351 692.701C376.059 692.96 373.753 692.37 371.838 691.033C369.924 689.697 368.524 687.701 367.885 685.396C367.246 683.091 367.41 680.626 368.347 678.434C369.284 676.242 370.934 674.465 373.007 673.415C375.969 677.371 377.719 682.162 378.027 687.167L378.351 692.701Z" fill="#3F3D56"/>
<path d="M100.313 693.419L88.7352 711.328L88.7288 702.895L94.8543 693.427L100.313 693.419Z" fill="#F2F2F2"/>
<path d="M92.3016 693.419L83.3883 707.201V698.769L86.8425 693.425L92.3016 693.419Z" fill="#F2F2F2"/>
<path d="M109.423 693.419L97.3921 712.028H91.9331L103.964 693.419H109.423Z" fill="#F2F2F2"/>
<path d="M238.262 713.406L169.941 713.423L169.923 707.373V696.801L169.904 690.102H179.908L195.688 690.093L238.244 690.085L238.262 713.406Z" fill="white"/>
<path d="M204.503 704.351L204.501 701.198L198.743 701.201L198.744 704.354L204.503 704.351Z" fill="#3F3D56"/>
<path d="M532.341 667.087H532.073C531.407 667.087 530.747 667.259 530.132 667.594C529.516 667.929 528.957 668.421 528.486 669.04C528.015 669.659 527.641 670.394 527.386 671.203C527.131 672.012 527 672.879 527 673.755C527 675.523 527.535 677.219 528.486 678.47C529.437 679.72 530.728 680.423 532.073 680.423H532.341L532.341 667.087Z" fill="white"/>
<path d="M690.031 685.238H693.613H845C846.104 685.238 847 684.342 847 683.238L847 605.162C847 604.058 846.105 603.162 845 603.162L834.426 603.162L751.597 603H542.967C539.407 603 536.513 604.938 535.926 608.449C533.092 625.425 529.397 675.457 528.813 684.22C528.775 684.794 529.233 685.238 529.808 685.238H686.826H690.031Z" fill="#6C63FF"/>
<path d="M595.029 697.777C584.819 697.777 576.542 689.166 576.542 678.542C576.542 667.919 584.819 659.307 595.029 659.307C605.239 659.307 613.516 667.919 613.516 678.542C613.516 689.166 605.239 697.777 595.029 697.777Z" fill="#3F3D56"/>
<path d="M595.241 688.445C589.867 688.445 585.511 683.913 585.511 678.322C585.511 672.731 589.867 668.198 595.241 668.198C600.615 668.198 604.971 672.731 604.971 678.322C604.971 683.913 600.615 688.445 595.241 688.445Z" fill="#CCCCCC"/>
<path d="M784.082 700C773.872 700 765.595 691.388 765.595 680.765C765.595 670.142 773.872 661.53 784.082 661.53C794.292 661.53 802.569 670.142 802.569 680.765C802.569 691.388 794.292 700 784.082 700Z" fill="#3F3D56"/>
<path d="M784.082 690.889C778.708 690.889 774.352 686.356 774.352 680.765C774.352 675.174 778.708 670.641 784.082 670.641C789.456 670.641 793.812 675.174 793.812 680.765C793.812 686.356 789.456 690.889 784.082 690.889Z" fill="#CCCCCC"/>
<path d="M548.362 653.751H844.225V654.862H548.362V653.751Z" fill="#3F3D56"/>
<path d="M531.272 650.354L541.725 650.402H543.001L545.155 650.417V648.829L545.156 629.706L545.158 608.235H543.724L542.449 608.217L540.189 608.202H538.913L536.304 608.187L531.272 650.354Z" fill="white"/>
<path d="M532.341 681.501L562.893 681.526H566.623L572.919 681.534V680.698L572.924 670.634L572.928 659.333H568.739L565.009 659.323L558.403 659.315H554.674L547.047 659.307L532.341 681.501Z" fill="white"/>
<path d="M824.999 650.387L844.214 650.417L844.219 639.47V620.339L844.225 608.217H841.411L836.973 608.202L825.004 608.187L824.999 650.387Z" fill="white"/>
<path d="M736.347 650.387L773.71 650.417L773.72 639.47V620.339L773.73 608.217H768.259L759.63 608.202L736.357 608.187L736.347 650.387Z" fill="white"/>
<path d="M780.139 650.387L817.502 650.417L817.512 639.47V620.339L817.522 608.217H812.051L803.422 608.202L780.149 608.187L780.139 650.387Z" fill="white"/>
<path d="M692.555 650.387L729.918 650.417L729.928 639.47V620.339L729.938 608.217H724.468L715.838 608.202L692.565 608.187L692.555 650.387Z" fill="white"/>
<path d="M559.043 650.387L598.541 650.417L598.552 639.47V620.339L598.562 608.217H592.779L583.656 608.202L559.054 608.187L559.043 650.387Z" fill="white"/>
<path d="M604.971 650.387L642.334 650.417L642.344 639.47V620.339L642.354 608.217H636.884L628.254 608.202L604.981 608.187L604.971 650.387Z" fill="white"/>
<path d="M648.763 650.387L686.126 650.417L686.136 639.47V620.339L686.146 608.217H680.676L672.046 608.202L648.773 608.187L648.763 650.387Z" fill="white"/>
<path d="M545.158 650.417V608.187H546.226V650.417H545.158Z" fill="#3F3D56"/>
<path d="M754.504 650.417V608.187H755.573V650.417H754.504Z" fill="#3F3D56"/>
<path d="M579.337 650.417V608.187H580.405V650.417H579.337Z" fill="#3F3D56"/>
<path d="M710.713 650.417V608.187H711.781V650.417H710.713Z" fill="#3F3D56"/>
<path d="M619.924 650.417V608.187H620.992V650.417H619.924Z" fill="#3F3D56"/>
<path d="M789.752 650.417V608.187H790.82V650.417H789.752Z" fill="#3F3D56"/>
<path d="M659.444 650.417V608.187H660.512V650.417H659.444Z" fill="#3F3D56"/>
<path d="M809.151 673.755H812.182V679.746H809.151V673.755Z" fill="#3F3D56"/>
<path d="M539.649 659.701C541.941 659.96 544.247 659.37 546.162 658.033C548.076 656.697 549.476 654.701 550.115 652.396C550.754 650.091 550.59 647.626 549.653 645.434C548.716 643.242 547.066 641.465 544.993 640.415C542.031 644.371 540.281 649.162 539.973 654.167L539.649 659.701Z" fill="#3F3D56"/>
<path d="M817.687 660.419L829.265 678.328L829.271 669.895L823.146 660.427L817.687 660.419Z" fill="#F2F2F2"/>
<path d="M825.698 660.419L834.612 674.201V665.769L831.157 660.425L825.698 660.419Z" fill="#F2F2F2"/>
<path d="M808.577 660.419L820.608 679.028H826.067L814.036 660.419H808.577Z" fill="#F2F2F2"/>
<path d="M679.738 680.406L748.059 680.423L748.077 674.373V663.801L748.096 657.102H738.092L722.312 657.093L679.756 657.085L679.738 680.406Z" fill="white"/>
<path d="M713.497 671.351L713.499 668.198L719.257 668.201L719.256 671.354L713.497 671.351Z" fill="#3F3D56"/>
</g>
<defs>
<clipPath id="clip0_0_1">
<rect width="888.516" height="743.976" fill="white"/>
</clipPath>
</defs>
</svg>
